# xmcd
#
# Track frame offsets:
#	150
#	11350
#	23560
#	35330
#	47772
#	61395
#	72425
#	89362
#	99515
#	113017
#	123912
#	137222
#	150980
#	163550
#	175010
#	189165
#	198957
#	211690
#
# Disc length: 2963
#
# Revision: 1
# Processed by: cddbd v1.5.1PL0 Copyright (c) Steve Scherf et al.
# Submitted via: dBpowerAMP V4.0
# Normalized: r0:TDELIM( - )
#
DISCID=db0b9112
DTITLE=Various Artist - Country Love
DYEAR=1993
DGENRE=Country
TTITLE0=Karl Denver - Love Me With All Of Your Heart
TTITLE1=Danny Williams - Moon River
TTITLE2=Guy Mitchell - Heartaches By The Number
TTITLE3=Sandy Posey - Single Girl
TTITLE4=Johnny Tillotson - I'm So Lonesome I Could Cry
TTITLE5=Patsy Cline - I Cried All The Way To The Alter
TTITLE6=Andre Lamberz - Help Me Make It Through The Night
TTITLE7=Loretta Lynn - Out Of My Mind and Back In My Bed (live)
TTITLE8=Nina Martin - Love Me Tender
TTITLE9=Billie Jo Spears - All I Have To Do Is Dream
TTITLE10=George Jones - Wedding Bells
TTITLE11=B.J. Thomas - Raindrops Keep Falling On My Head
TTITLE12=Willie Nelson - Shelter Of Your Arms
TTITLE13=Don Gibson - Oh, Lonesmome Me
TTITLE14=Freddy Fender - Wasted Days, Wasted Nights
TTITLE15=Ned Miller - From A Jack To A King
TTITLE16=Lyn Anderson - Rose Garden
TTITLE17=Johnny Russell - Blue Eyes Cryin' In The Rain
EXTD=
EXTT0=
EXTT1=
EXTT2=
EXTT3=
EXTT4=
EXTT5=
EXTT6=
EXTT7=
EXTT8=
EXTT9=
EXTT10=
EXTT11=
EXTT12=
EXTT13=
EXTT14=
EXTT15=
EXTT16=
EXTT17=
PLAYORDER=
